<?xml version="1.0" encoding="UTF-8"?>
<svg version="1.1" xmlns="http://www.w3.org/2000/svg" width="819" height="494">
<path d="M0 0 C270.27 0 540.54 0 819 0 C819 163.02 819 326.04 819 494 C548.73 494 278.46 494 0 494 C0 330.98 0 167.96 0 0 Z " fill="#FEFEFE" transform="translate(0,0)"/>
<path d="M0 0 C1.34176688 -0.0034604 2.68353092 -0.00822752 4.02528906 -0.01418173 C7.69735886 -0.02666905 11.36919381 -0.0205318 15.0412643 -0.01122308 C19.00724653 -0.00442358 22.97318894 -0.01491828 26.93916321 -0.02316284 C34.70258439 -0.03649277 42.46591848 -0.03362574 50.22934306 -0.02492492 C56.53963664 -0.01814587 62.84990584 -0.01723261 69.16020203 -0.02049637 C70.50810008 -0.02118592 70.50810008 -0.02118592 71.88322839 -0.0218894 C73.70879528 -0.02284859 75.53436215 -0.02382123 77.35992903 -0.02480717 C94.47257715 -0.03335889 111.58517705 -0.02353034 128.69781727 -0.00740607 C143.37673469 0.00599691 158.05558093 0.00366876 172.73449707 -0.01016235 C189.78650474 -0.026222 206.83847015 -0.03253494 223.89048433 -0.02332556 C225.70928223 -0.02236993 227.52808014 -0.02142682 229.34687805 -0.02049637 C230.68915341 -0.01980213 230.68915341 -0.01980213 232.05854544 -0.01909386 C238.36022288 -0.01650513 244.66187347 -0.02087246 250.96354675 -0.02793503 C258.64467091 -0.0363545 266.32570311 -0.03406049 274.00681674 -0.0180928 C277.92478043 -0.01021609 281.84259086 -0.00710819 285.76055336 -0.01704025 C289.34934677 -0.02600018 292.93784532 -0.02103318 296.5266121 -0.0051076 C298.43504977 -0.00018577 300.34350801 -0.00994473 302.25192404 -0.02027929 C309.63541222 0.03025251 316.12337613 0.3010035 321.99572754 5.28329468 C322.53455566 5.95489624 323.07338379 6.6264978 323.62854004 7.31845093 C324.18283691 7.98747437 324.73713379 8.6564978 325.30822754 9.34579468 C327.86288854 12.94303354 329.00480764 15.5474388 328.96130371 19.99423218 C328.95857956 20.90197388 328.95585541 21.80971558 328.95304871 22.7449646 C328.94264053 23.71796509 328.93223236 24.69096558 328.92150879 25.69345093 C328.92718432 27.75855971 328.93439259 29.82366475 328.94299316 31.88876343 C328.94717597 35.14151301 328.9409184 38.39299965 328.90808105 41.64559937 C328.88122565 44.78744354 328.89793258 47.92663458 328.92150879 51.06845093 C328.8907148 52.52795166 328.8907148 52.52795166 328.85929871 54.01693726 C328.8971297 56.65110835 328.98988913 58.85866857 329.75354004 61.38095093 C331.96029088 63.50933828 333.83613352 64.18293218 336.75354004 65.38095093 C337.87937842 66.13233421 338.9930859 66.90330718 340.07775879 67.71298218 C340.62456299 68.11533081 341.17136719 68.51767944 341.73474121 68.93222046 C342.29781982 69.34842651 342.86089844 69.76463257 343.44104004 70.19345093 C365.30667673 85.97420817 392.21214752 97.34357751 419.45666504 97.74423218 C423.59133526 98.54275261 426.31204056 99.96244571 428.75354004 103.38095093 C429.62339019 107.07746031 429.52314096 110.68879186 429.44494629 114.47079468 C429.44357162 115.56573746 429.44219696 116.66068024 429.44078064 117.7888031 C429.43171633 120.1147838 429.40806602 122.44074642 429.37097168 124.76644897 C429.31713936 128.2473665 429.30943685 131.72583769 429.31018066 135.2071228 C429.10224981 179.13618929 417.33024688 215.29974621 386.75354004 247.38095093 C385.97623535 248.22270874 385.19893066 249.06446655 384.39807129 249.93173218 C370.97279885 264.03164142 354.14209736 274.38753302 336.81604004 283.00595093 C336.13033936 283.36140991 335.44463867 283.7168689 334.73815918 284.08309937 C329.91776956 286.38771472 325.96734338 286.92720294 320.75354004 285.38095093 C317.62593663 284.13700566 314.70282909 282.62347076 311.75354004 281.00595093 C310.93047363 280.56259399 310.10740723 280.11923706 309.25939941 279.66244507 C289.31178441 268.69624756 267.49603276 253.49469001 254.75354004 234.38095093 C252.72226708 233.93080603 252.72226708 233.93080603 250.33430481 234.01015663 C249.39945629 234.00378358 248.46460777 233.99741054 247.50143051 233.99084437 C246.4674123 233.99910254 245.43339409 234.00736072 244.36804199 234.01586914 C243.27491322 234.01275014 242.18178444 234.00963115 241.05553055 234.00641763 C237.36749169 233.99943565 233.67983555 234.01384543 229.99182129 234.02792358 C227.35753809 234.02709337 224.72325501 234.02487899 222.088974 234.02137756 C216.40262766 234.01562206 210.71636643 234.02027803 205.0300293 234.03139114 C196.79758293 234.04702802 188.56525154 234.04148985 180.33280349 234.02977471 C166.96279427 234.01086211 153.59280067 234.00166298 140.22277832 234.00204468 C139.42205705 234.00206212 138.62133579 234.00207956 137.79635024 234.00209753 C128.87149388 234.00254933 119.94664312 234.00586848 111.02178955 234.01296997 C110.22056862 234.01360235 109.41934769 234.01423474 108.59384733 234.01488628 C107.39333248 234.01583513 107.39333248 234.01583513 106.1685648 234.01680315 C104.55480004 234.01807288 102.94103527 234.0193383 101.32727051 234.02059937 C100.13128701 234.02154165 100.13128701 234.02154165 98.91114223 234.02250297 C85.60170703 234.03246758 72.29236481 234.02310508 58.98294926 233.99841535 C50.77562536 233.98399694 42.56862907 233.98602878 34.36132413 234.00937735 C28.73076762 234.02415726 23.10040255 234.0209385 17.46985358 234.00374843 C14.22390323 233.99443536 10.97859318 233.99594441 7.73266411 234.01397896 C4.20627521 234.03235584 0.68125839 234.01989929 -2.84509277 234 C-3.86126521 234.01271962 -4.87743765 234.02543924 -5.92440319 234.0385443 C-12.93066092 233.95358938 -18.43377143 232.3970557 -24.24645996 228.38095093 C-29.88964017 222.366661 -31.39559751 217.634033 -31.39363098 209.44328308 C-31.39730767 208.62557031 -31.40098436 207.80785754 -31.40477246 206.96536559 C-31.41581663 204.21562276 -31.41965439 201.46591771 -31.42346191 198.71615601 C-31.42972603 196.74842203 -31.43637279 194.78068925 -31.44337463 192.81295776 C-31.46078953 187.45946732 -31.47133785 182.10598582 -31.47958016 176.75247407 C-31.48472954 173.40806247 -31.49080532 170.06365364 -31.49709129 166.719244 C-31.51614519 156.2562307 -31.53037562 145.79322447 -31.53870326 135.33019716 C-31.54847584 123.25094623 -31.57479519 111.17187855 -31.61520416 99.0926922 C-31.645362 89.7575505 -31.66017185 80.42246134 -31.66348428 71.08727187 C-31.66583521 65.51125729 -31.67480147 59.93543843 -31.69994545 54.35947609 C-31.72322512 49.11209607 -31.72745971 43.86504065 -31.71718407 38.61762238 C-31.71668857 36.6939632 -31.72301316 34.77028805 -31.73674011 32.84667778 C-31.75446411 30.21524326 -31.74735063 27.58497298 -31.73420715 24.95353699 C-31.7451764 24.19680547 -31.75614565 23.44007395 -31.76744729 22.66041118 C-31.68384934 15.70203648 -29.35538542 10.53780651 -24.49645996 5.56845093 C-16.46630676 0.16354012 -9.44172564 -0.05112936 0 0 Z " fill="#3466A7" transform="translate(109.2464599609375,39.619049072265625)"/>
<path d="M0 0 C65.67 0 131.34 0 199 0 C200.98 3.96 202.96 7.92 205 12 C210.74521989 19.77294456 217.81831092 24.67717386 226.625 28.625 C229 30 229 30 229.875 32.6875 C229.91625 33.450625 229.9575 34.21375 230 35 C224.76723734 37.74763792 219.75310646 39.97626823 214.0625 41.5625 C213.31468262 41.77519531 212.56686523 41.98789063 211.79638672 42.20703125 C203.77061049 44.32698664 195.59140942 45.12594695 187.32836914 45.74829102 C185.79297485 45.88835571 185.79297485 45.88835571 184.2265625 46.03125 C183.31471191 46.09892578 182.40286133 46.16660156 181.46337891 46.23632812 C177.79997997 47.3720181 176.84231503 48.62387393 175 52 C174.42859069 55.65078975 174.46355557 59.2525293 174.50390625 62.94140625 C174.50245102 64.01889633 174.50099579 65.09638641 174.49949646 66.20652771 C174.50115628 68.49375095 174.51272673 70.78098525 174.53344727 73.06811523 C174.56196701 76.49839325 174.55414351 79.92708065 174.54101562 83.35742188 C174.55433682 96.13406585 175.38302444 108.4003444 177.63937378 120.9772644 C178.17535265 123.98354481 178.65595152 126.96455301 179 130 C178 131 178 131 175.11267757 131.12304783 C173.8083405 131.12212604 172.50400343 131.12120424 171.16014099 131.12025452 C170.0746762 131.12153615 170.0746762 131.12153615 168.96728283 131.12284368 C166.52430654 131.12450062 164.08139778 131.11897365 161.63842773 131.11352539 C159.89446006 131.11324354 158.15049226 131.11340121 156.40652466 131.1139679 C151.65672505 131.11425595 146.90695047 131.10835797 142.15715671 131.10139394 C137.19901578 131.09516169 132.24087434 131.0945567 127.2827301 131.09336853 C117.88690172 131.09025483 108.49108491 131.08204093 99.09526163 131.07201904 C88.40136851 131.06085909 77.70747484 131.05534775 67.01357734 131.05032361 C45.00904509 131.03985834 23.00452327 131.02225816 1 131 C0.53239258 130.11231934 0.06478516 129.22463867 -0.41699219 128.31005859 C-1.04343187 127.13108503 -1.67007001 125.95221689 -2.296875 124.7734375 C-2.90885742 123.61763184 -3.52083984 122.46182617 -4.15136719 121.27099609 C-10.19350443 110.5799561 -19.22992315 105.38503843 -30 100 C-30 76.9 -30 53.8 -30 30 C-25.05 27.36 -20.1 24.72 -15 22 C-6.70068964 15.31444443 -5.24527817 10.49055635 0 0 Z " fill="#FEFEFE" transform="translate(159,92)"/>
<path d="M0 0 C23.12756851 15.89372141 47.87035676 24.12034669 75.375 28.5625 C75.45038559 34.48084881 75.50417144 40.398905 75.53979492 46.31762695 C75.55467939 48.32190837 75.57499353 50.32615846 75.60131836 52.33032227 C75.81877461 69.33881189 74.9666589 86.00374283 69.25 102.1875 C68.9514209 103.0530249 68.6528418 103.9185498 68.34521484 104.81030273 C55.66416315 140.17778835 26.0416476 168.64497879 -7.625 184.5625 C-11.70977855 185.88194395 -13.27983384 185.69743851 -17.33203125 184.11328125 C-18.71164233 183.38795864 -20.07970091 182.64037654 -21.4375 181.875 C-22.17452148 181.46999268 -22.91154297 181.06498535 -23.67089844 180.64770508 C-37.38963467 172.92254909 -49.39582524 163.54555586 -60.625 152.5625 C-61.42164063 151.82773437 -62.21828125 151.09296875 -63.0390625 150.3359375 C-79.44670429 134.85593623 -90.56221338 113.90925678 -95.8125 92.125 C-95.96750977 91.48191895 -96.12251953 90.83883789 -96.28222656 90.17626953 C-96.7784797 87.97880874 -97.2108348 85.77696199 -97.625 83.5625 C-97.80740234 82.61084961 -97.98980469 81.65919922 -98.17773438 80.67871094 C-100.02657454 69.69346451 -99.84999187 58.7941439 -99.75 47.6875 C-99.73994396 45.72786919 -99.73082278 43.76823335 -99.72265625 41.80859375 C-99.70086489 37.05976913 -99.66648165 32.31119177 -99.625 27.5625 C-98.72461754 27.45529884 -98.72461754 27.45529884 -97.80604553 27.34593201 C-69.46116692 23.94060843 -43.04261239 14.72725943 -19.80078125 -2.18359375 C-12.28180238 -7.5199416 -6.93496552 -4.96298592 0 0 Z " fill="#FEFEFE" transform="translate(447.625,124.4375)"/>
<path d="M0 0 C6.62439076 -0.00537252 13.24876082 -0.01594079 19.87314123 -0.02863538 C27.9586573 -0.04394902 36.04413997 -0.05194625 44.1296711 -0.05027741 C48.26967384 -0.04953615 52.40961287 -0.05187945 56.5496034 -0.06251562 C60.34198965 -0.07208642 64.13425696 -0.07239179 67.92664725 -0.06510484 C69.30489434 -0.06407717 70.68314879 -0.06647148 72.06138307 -0.07250535 C73.92606012 -0.08015339 75.79077809 -0.07440894 77.65545934 -0.06786573 C78.69466654 -0.0684105 79.73387373 -0.06895526 80.80457205 -0.06951654 C83.24866003 0.17937243 83.24866003 0.17937243 85.24866003 2.17937243 C85.5766477 4.34016955 85.5766477 4.34016955 85.68200964 7.05290759 C85.72381857 8.06801409 85.7656275 9.0831206 85.80870336 10.12898791 C85.9374843 14.78830723 86.04429786 19.44698903 86.11365026 24.10759509 C86.16179274 26.56205093 86.23677793 29.01613429 86.3392362 31.46892321 C87.16093137 51.34778032 87.16093137 51.34778032 83.97259802 56.0688988 C80.54779496 59.26347523 76.67904943 60.72615731 72.24866003 62.17937243 C71.25866003 62.83937243 70.26866003 63.49937243 69.24866003 64.17937243 C67.92866003 64.17937243 66.60866003 64.17937243 65.24866003 64.17937243 C65.02178503 63.08624743 64.79491003 61.99312243 64.56116003 60.86687243 C63.59491589 57.1767167 63.59491589 57.1767167 61.18616003 55.42937243 C58.73379983 54.3858149 56.3455139 53.54825775 53.81116003 52.74187243 C45.80511177 50.13924618 39.92433843 45.15275546 35.24866003 38.17937243 C33.99092952 34.80849843 33.04474097 31.50327284 32.23303503 27.99968493 C31.04421009 24.59360714 30.39586014 23.89451173 27.24866003 22.17937243 C24.32764768 21.88996023 21.62176943 21.77444485 18.70152563 21.7984215 C17.39487915 21.79140154 17.39487915 21.79140154 16.06183577 21.78423977 C13.13754699 21.77225605 10.21372392 21.78176018 7.28943151 21.79118884 C5.19521079 21.78712467 3.10099221 21.78178366 1.0067777 21.77525866 C-4.6852074 21.76156173 -10.3770297 21.76689334 -16.06901771 21.77639592 C-22.01870726 21.78397918 -27.96838267 21.77695071 -33.91807276 21.77223742 C-43.90931431 21.76677641 -53.90048937 21.77398102 -63.89172083 21.78825915 C-75.45362858 21.80459075 -87.01537768 21.79929479 -98.57728159 21.78277993 C-108.4941137 21.76918026 -118.41089796 21.76723783 -128.32773638 21.77509594 C-134.25507715 21.77978024 -140.18234326 21.78037645 -146.10967928 21.77048647 C-151.68042302 21.76184103 -157.2509615 21.76779435 -162.82168299 21.78516924 C-164.86998312 21.78914687 -166.91830043 21.78797837 -168.9665938 21.78138125 C-171.75502803 21.7732261 -174.54279774 21.78341399 -177.33118922 21.7984215 C-178.1484942 21.79172934 -178.96579918 21.78503717 -179.80787098 21.77814221 C-184.0445814 21.74454014 -184.0445814 21.74454014 -187.65259939 23.70318186 C-188.01518378 24.19032475 -188.37776818 24.67746764 -188.75133997 25.17937243 C-189.41133997 25.17937243 -190.07133997 25.17937243 -190.75133997 25.17937243 C-190.84415247 26.88093493 -190.84415247 26.88093493 -190.93883997 28.61687243 C-191.87723277 36.07114763 -196.05394545 42.40946074 -201.75133997 47.17937243 C-206.73045351 50.90812562 -211.51153258 52.94557284 -217.55212122 54.40593493 C-220.22379289 55.34552816 -221.10913953 55.85047072 -222.75133997 58.17937243 C-223.05271417 61.00646811 -223.17138032 63.6142271 -223.15539271 66.44280016 C-223.16568758 67.70666049 -223.16568758 67.70666049 -223.17619044 68.99605334 C-223.19451284 71.78519503 -223.19061316 74.57377713 -223.18493372 77.36296618 C-223.18949303 79.29965934 -223.19479785 81.23635087 -223.20081812 83.17304003 C-223.20976 87.23421829 -223.207314 91.29520003 -223.19738489 95.35637438 C-223.18589594 100.56320842 -223.20610013 105.76936423 -223.23530203 110.97610915 C-223.25364055 114.97639815 -223.25337623 118.97652395 -223.24766451 122.97684443 C-223.247511 124.89660686 -223.2535801 126.81638015 -223.26595598 128.7361027 C-223.28081933 131.42001895 -223.27022354 134.10267364 -223.25304896 136.78655016 C-223.26271693 137.58097018 -223.27238489 138.37539019 -223.28234583 139.19388354 C-223.23467024 142.74838836 -223.06329189 144.77012904 -220.87720972 147.63800585 C-218.46306606 149.38838607 -216.35361737 150.19868921 -213.50133997 151.05437243 C-205.0146925 153.9511481 -197.82639851 159.13986897 -193.66540247 167.31218493 C-192.64160113 169.5830225 -191.68399673 171.86974604 -190.75133997 174.17937243 C-189.22056643 178.48680372 -189.22056643 178.48680372 -186.75133997 182.17937243 C-184.27281329 182.28947214 -181.82154934 182.33433173 -179.34202296 182.33759081 C-178.55712648 182.34252879 -177.77223 182.34746677 -176.96354878 182.35255438 C-174.3133063 182.36800627 -171.66308818 182.37631068 -169.01281458 182.3846947 C-167.12106331 182.39426719 -165.2293142 182.40427689 -163.33756739 182.41469347 C-158.18491218 182.44181679 -153.03224775 182.46278601 -147.87956029 182.48269546 C-142.50099258 182.50450937 -137.12245355 182.53192046 -131.74390894 182.5587517 C-121.55124252 182.60874093 -111.35856023 182.65365656 -101.16586268 182.69677407 C-89.56507392 182.74609332 -77.96431394 182.80103108 -66.36355299 182.85645366 C-42.49284214 182.9703693 -18.62210371 183.07718737 5.24866003 183.17937243 C6.78589737 185.94140775 8.30050164 188.71522395 9.81116003 191.49187243 C10.24879675 192.27755602 10.68643347 193.06323962 11.1373319 193.8727318 C11.54660925 194.63005602 11.95588659 195.38738024 12.37756628 196.16765368 C12.75985388 196.86415026 13.14214147 197.56064684 13.53601354 198.27824938 C14.24866003 200.17937243 14.24866003 200.17937243 13.24866003 203.17937243 C-19.18575599 203.24776572 -51.62015128 203.30087843 -84.05462291 203.33256842 C-87.88118171 203.33632067 -91.70774037 203.34020363 -95.53429896 203.34416735 C-96.67702871 203.34534775 -96.67702871 203.34534775 -97.84284391 203.34655199 C-110.18867168 203.35961667 -122.53445767 203.38327633 -134.88026062 203.41083082 C-147.54206145 203.43885552 -160.20384035 203.45554246 -172.86567092 203.46163791 C-180.68280808 203.46576047 -188.49982717 203.47879521 -196.31692799 203.50312183 C-202.30452596 203.52080933 -208.2920217 203.5227455 -214.27964884 203.51869547 C-216.74077114 203.51952388 -219.20189772 203.52553182 -221.66299349 203.53698885 C-225.01209328 203.55182091 -228.36067967 203.54835989 -231.70979029 203.54013598 C-232.69324358 203.5488745 -233.67669687 203.55761303 -234.68995178 203.56661636 C-235.58419079 203.56064321 -236.47842981 203.55467007 -237.39976698 203.54851592 C-238.17325729 203.54965508 -238.94674761 203.55079424 -239.74367702 203.55196792 C-242.32307587 203.07326587 -243.20336406 202.27250675 -244.75133997 200.17937243 C-245.0417603 197.49316911 -245.14744558 195.03964754 -245.11883265 192.3531853 C-245.12210149 191.54757334 -245.12537033 190.74196138 -245.12873822 189.91193694 C-245.13604093 187.20328511 -245.12184099 184.49516925 -245.10778528 181.78655016 C-245.10857584 179.84848974 -245.11067212 177.91042946 -245.11398035 175.9723717 C-245.11912383 170.7018467 -245.10556043 165.43151623 -245.08845335 160.16102254 C-245.07344466 154.6539654 -245.07459204 149.14691108 -245.0737887 143.63983691 C-245.07009363 134.39166967 -245.05511365 125.14357654 -245.03258997 115.89543688 C-245.0037076 104.01195847 -244.99336643 92.12853974 -244.98890787 80.24503005 C-244.98493221 70.04439311 -244.97242984 59.84376923 -244.958561 49.64314163 C-244.9544567 46.35633924 -244.95153378 43.06953732 -244.94876581 39.78273356 C-244.94388215 34.62573491 -244.93369455 29.46877269 -244.9193278 24.31179202 C-244.91479488 22.41465295 -244.91196379 20.51750898 -244.9109202 18.62036479 C-244.90918165 16.03973158 -244.90131772 13.45919035 -244.89178187 10.87857592 C-244.89264835 10.11993115 -244.89351483 9.36128638 -244.89440757 8.57965237 C-244.86554788 3.40778825 -244.86554788 3.40778825 -243.75133997 1.17937243 C-162.50172851 0.54348102 -81.2522823 0.06083583 0 0 Z " fill="#619FEB" transform="translate(337.7513399720192,54.82062757015228)"/>
<path d="M0 0 C1.36970947 0.00966797 1.36970947 0.00966797 2.76708984 0.01953125 C17.80087644 0.42205645 29.58425644 6.88999993 40 17.625 C50.39348301 30.00735939 54.12854168 44.55316602 52.75 60.5 C49.82435859 75.44449262 42.96705823 88.04865015 30.25 96.875 C17.07229154 104.95976394 2.47145758 107.66535776 -12.78125 104.84765625 C-24.70637975 101.5398524 -36.75761985 94.4215605 -43.38085938 83.66308594 C-51.13327631 69.89954365 -54.47917237 56.70038053 -51.59765625 40.9296875 C-47.08271711 24.84642791 -37.85135803 13.34382873 -23.53515625 5.0078125 C-15.78991098 1.4529199 -8.5047819 -0.06352778 0 0 Z " fill="#609FEC" transform="translate(258.25,104.5)"/>
<path d="M0 0 C1.36970947 0.00966797 1.36970947 0.00966797 2.76708984 0.01953125 C17.80087644 0.42205645 29.58425644 6.88999993 40 17.625 C50.39348301 30.00735939 54.12854168 44.55316602 52.75 60.5 C49.82435859 75.44449262 42.96705823 88.04865015 30.25 96.875 C17.07229154 104.95976394 2.47145758 107.66535776 -12.78125 104.84765625 C-24.70637975 101.5398524 -36.75761985 94.4215605 -43.38085938 83.66308594 C-51.13327631 69.89954365 -54.47917237 56.70038053 -51.59765625 40.9296875 C-47.08271711 24.84642791 -37.85135803 13.34382873 -23.53515625 5.0078125 C-15.78991098 1.4529199 -8.5047819 -0.06352778 0 0 Z M-29.25 28.5 C-36.61990284 38.61182368 -38.09451499 48.13577266 -37.25 60.5 C-35.47386615 70.06059549 -29.70869142 78.40589245 -22.25 84.5 C-13.07962096 90.51981937 -2.13506541 91.71308699 8.54296875 90.0703125 C19.47464203 87.57252538 26.92105924 81.53113718 33.12109375 72.3125 C38.405629 63.18812259 39.38100029 52.71510299 37.05859375 42.44140625 C33.70527898 32.3253395 27.40689854 24.41764681 18.234375 19.01953125 C1.74230609 10.97626813 -17.11031287 14.70162295 -29.25 28.5 Z " fill="#3366A7" transform="translate(258.25,104.5)"/>
<path d="M0 0 C7.48784221 5.36030032 12.1532029 12.10813276 14.33984375 21.09765625 C16.03981022 31.84210452 14.2572507 41.85460752 8.109375 50.89453125 C3.59010019 56.66629079 -2.15441299 60.00675574 -9.2578125 61.640625 C-18.45996523 62.67225647 -28.36589001 63.0885973 -36.2578125 57.640625 C-36.88816406 57.21652344 -37.51851562 56.79242188 -38.16796875 56.35546875 C-44.78457573 51.31223753 -48.5231659 44.13167928 -49.97265625 36.01171875 C-51.18251807 25.95163486 -50.24938715 16.71995874 -44.5625 8.05859375 C-33.82115514 -5.05280494 -14.78823577 -8.90364368 0 0 Z " fill="#20232E" transform="translate(175.2578125,391.359375)"/>
<path d="M0 0 C5.535902 4.07855303 9.18481545 9.33680701 11 16 C11 17.98 11 19.96 11 22 C6.38 22 1.76 22 -3 22 C-3.515625 20.5975 -4.03125 19.195 -4.5625 17.75 C-6.24535422 14.10285861 -7.74883691 11.38794347 -11.54296875 9.5859375 C-15.0355504 8.75304839 -18.48924386 8.61160995 -22.0625 8.5625 C-23.08972168 8.5469104 -23.08972168 8.5469104 -24.13769531 8.53100586 C-28.80135255 8.61263675 -32.04096692 9.55731789 -36 12 C-38.23271843 14.75368606 -38.93532328 16.48258624 -39.375 20 C-38.91425698 23.68594418 -38.49812516 25.20797776 -36 28 C-29.96984184 31.58254294 -22.87111643 32.7817496 -16.125 34.375 C-5.77552554 36.84667327 4.94745218 39.51767509 11 49 C13.95820861 55.31932735 14.21248039 62.12980591 12.125 68.79296875 C8.24513533 77.22912187 2.68266587 81.59671227 -5.69140625 85.23828125 C-17.07942336 88.99574882 -30.2430524 88.13363872 -41 83 C-48.03567405 78.7832167 -52.52974182 73.81391347 -55.484375 66.16015625 C-56 64 -56 64 -56 58 C-51.05 58 -46.1 58 -41 58 C-40.79375 59.216875 -40.5875 60.43375 -40.375 61.6875 C-39.15479451 66.5769759 -37.1531268 68.2312488 -33 71 C-26.3335145 74.29840049 -17.43983835 74.19385188 -10.3125 72.27734375 C-7.25538977 70.88928084 -5.29824511 69.47222142 -3.5 66.625 C-2.59561582 61.87698305 -2.32672405 59.24680731 -4.6875 54.875 C-9.64154357 49.54628087 -18.0778479 48.72979334 -24.83203125 47.04296875 C-36.35794238 44.11186065 -46.12207954 41.31688069 -53 31 C-55.89428443 24.94831437 -56.13410548 18.68188664 -54.16015625 12.2734375 C-51.3785723 6.07340863 -47.86948321 2.34801181 -42 -1 C-41.32839844 -1.4125 -40.65679687 -1.825 -39.96484375 -2.25 C-28.32849848 -8.16052458 -10.83094228 -6.91150598 0 0 Z " fill="#20242E" transform="translate(408,367)"/>
<path d="M0 0 C6.48085178 6.78228674 7.26126247 13.17099195 7.078125 22.3125 C7.07246521 23.38878662 7.06680542 24.46507324 7.06097412 25.57397461 C7.03871234 28.98728265 6.98853352 32.39951309 6.9375 35.8125 C6.91742189 38.13670351 6.89917342 40.4609236 6.8828125 42.78515625 C6.83888073 48.46134814 6.76992276 54.13674182 6.6875 59.8125 C2.3975 59.8125 -1.8925 59.8125 -6.3125 59.8125 C-6.6425 58.1625 -6.9725 56.5125 -7.3125 54.8125 C-8.3025 55.59625 -9.2925 56.38 -10.3125 57.1875 C-16.26500432 61.41533506 -23.05160994 62.69963882 -30.3125 61.8125 C-36.45153047 60.40134702 -41.74653215 58.45043468 -45.5 53.12890625 C-48.56395629 47.8414539 -49.26713626 42.83556588 -48.3125 36.8125 C-46.44468784 31.10959424 -42.55996118 27.51543755 -37.3125 24.8125 C-27.56878063 20.49544284 -16.72029996 21.53726925 -6.3125 21.8125 C-6.62258884 20.20786551 -6.93566287 18.60380769 -7.25 17 C-7.42402344 16.10667969 -7.59804687 15.21335937 -7.77734375 14.29296875 C-8.28991153 11.69852829 -8.28991153 11.69852829 -9.3125 8.8125 C-12.61585066 7.71138311 -15.21082137 7.61023472 -18.6875 7.5625 C-19.80898437 7.53671875 -20.93046875 7.5109375 -22.0859375 7.484375 C-25.71327311 7.85325659 -27.49144893 8.51977298 -30.3125 10.8125 C-31.3025 13.2875 -31.3025 13.2875 -32.3125 15.8125 C-36.9325 15.8125 -41.5525 15.8125 -46.3125 15.8125 C-45.75030046 8.78500571 -43.56491764 5.01372633 -38.5625 0.125 C-27.19019712 -7.9668309 -11.56351149 -7.63628117 0 0 Z " fill="#20232D" transform="translate(244.3125,392.1875)"/>
<path d="M0 0 C7.70513862 3.89517276 11.30286481 9.31242308 14.47265625 17.25 C15.47265625 21.25 15.47265625 21.25 15.47265625 34.25 C0.29265625 34.25 -14.88734375 34.25 -30.52734375 34.25 C-28.09134178 43.40757256 -28.09134178 43.40757256 -25.52734375 48.25 C-23.11782352 49.49714403 -23.11782352 49.49714403 -20.52734375 50.25 C-19.04234375 50.745 -19.04234375 50.745 -17.52734375 51.25 C-11.6692088 51.64054233 -7.78692131 51.18322595 -2.52734375 48.25 C-1.93953125 47.3940625 -1.35171875 46.538125 -0.74609375 45.65625 C1.47265625 43.25 1.47265625 43.25 4.70703125 42.76171875 C6.44726562 42.84873047 6.44726562 42.84873047 8.22265625 42.9375 C9.393125 42.98261719 10.56359375 43.02773438 11.76953125 43.07421875 C13.10757813 43.16123047 13.10757813 43.16123047 14.47265625 43.25 C13.57824401 50.63679288 10.24340799 55.05648821 4.47265625 59.625 C-4.71606933 64.60222636 -16.12517621 65.07819768 -26.125 62.22265625 C-33.93745817 58.65717281 -38.83736058 53.70737594 -42.61328125 46.046875 C-45.95673602 37.02874929 -46.21822616 24.76051042 -42.96484375 15.6875 C-38.62173473 6.78942299 -32.60469406 1.947592 -23.52734375 -1.75 C-15.71071357 -4.35554339 -7.47880732 -3.09913167 0 0 Z " fill="#1F222C" transform="translate(744.52734375,389.75)"/>
<path d="M0 0 C7.64690326 5.23019327 11.77559886 11.10239543 14 20 C14 24.62 14 29.24 14 34 C-1.18 34 -16.36 34 -32 34 C-28.61678114 44.7465835 -28.61678114 44.7465835 -21.1171875 50.0703125 C-16.40887285 52.13780122 -11.41364143 51.50677712 -6.6875 49.8125 C-3.86830897 48.16090721 -3.86830897 48.16090721 -2.28515625 45.40625 C0 43 0 43 3.453125 42.51171875 C5.33257812 42.59873047 5.33257812 42.59873047 7.25 42.6875 C8.51328125 42.73261719 9.7765625 42.77773438 11.078125 42.82421875 C12.52445312 42.91123047 12.52445312 42.91123047 14 43 C12.81405185 49.96744536 9.27091718 54.38014366 4 59 C-3.78621695 64.2850184 -13.95217612 64.08193121 -23 63 C-26.43619852 62.16098308 -29.07923434 60.97798687 -32 59 C-32.94746094 58.36384766 -32.94746094 58.36384766 -33.9140625 57.71484375 C-40.18078246 52.92813638 -44.1276726 45.91796327 -45.71875 38.22265625 C-47.00902221 28.02592169 -46.31864456 18.3174982 -40.25 9.75 C-30.02229311 -2.68910297 -15.16099042 -7.3115099 0 0 Z " fill="#1F222C" transform="translate(474,390)"/>
<path d="M0 0 C5.6121131 4.41126794 7.53570492 10.21734616 9 17 C9.35544309 20.61819277 9.35327577 24.1875743 9.29296875 27.8203125 C9.28872391 28.80498505 9.28447906 29.78965759 9.28010559 30.8041687 C9.26347705 33.91140524 9.2258555 37.01796357 9.1875 40.125 C9.17243268 42.24738639 9.15874788 44.36978306 9.14648438 46.4921875 C9.11362557 51.66171477 9.06195483 56.83074289 9 62 C4.38 62 -0.24 62 -5 62 C-5.01458252 60.86570557 -5.02916504 59.73141113 -5.04418945 58.56274414 C-5.1025494 54.31878525 -5.17977728 50.0753362 -5.26245117 45.83178711 C-5.29552431 44.00179372 -5.32360999 42.17170263 -5.34643555 40.34155273 C-5.38030807 37.69733387 -5.43263641 35.05399621 -5.48828125 32.41015625 C-5.49467117 31.60353043 -5.5010611 30.7969046 -5.50764465 29.96583557 C-5.66732275 23.67258517 -6.48154261 16.8102958 -10.8203125 11.96875 C-15.35805087 9.95197739 -20.16782768 10.31522692 -25 11 C-28.63437675 12.62298504 -30.53225332 14.91822137 -32.12255859 18.59619141 C-33.23054991 22.89435917 -33.35354843 26.91450635 -33.4140625 31.3359375 C-33.43342865 32.21528961 -33.4527948 33.09464172 -33.4727478 34.00064087 C-33.53222815 36.79199718 -33.5788021 39.58339543 -33.625 42.375 C-33.66320885 44.27475694 -33.70226226 46.1744971 -33.7421875 48.07421875 C-33.83790357 52.7160085 -33.9220504 57.35787929 -34 62 C-38.62 62 -43.24 62 -48 62 C-48 41.21 -48 20.42 -48 -1 C-43.71 -1 -39.42 -1 -35 -1 C-34.67 1.64 -34.34 4.28 -34 7 C-33.50371094 6.52949219 -33.00742187 6.05898438 -32.49609375 5.57421875 C-23.02085037 -3.10992272 -11.90702974 -6.38691251 0 0 Z " fill="#20232E" transform="translate(311,390)"/>
<path d="M0 0 C2.4375 1.625 2.4375 1.625 4 4 C4.01669157 8.57905386 3.18292996 11.2018164 0.0859375 14.46484375 C-1.13615318 15.63810359 -2.37372191 16.79541969 -3.625 17.9375 C-4.8489567 19.08968952 -6.07030599 20.24465499 -7.2890625 21.40234375 C-7.91369385 21.99450684 -8.5383252 22.58666992 -9.18188477 23.19677734 C-10.91091855 24.91164824 -12.49065691 26.67966603 -14.06640625 28.53515625 C-19.19533901 34.50377517 -24.81932862 40.00534213 -30.38110352 45.56640625 C-32.33052781 47.51804832 -34.27177624 49.4775967 -36.21289062 51.4375 C-37.45003249 52.67757071 -38.68764535 53.91717177 -39.92578125 55.15625 C-40.50596512 55.74361938 -41.08614899 56.33098877 -41.68391418 56.93615723 C-45.77113745 61 -45.77113745 61 -48 61 C-48.38091797 61.87398437 -48.38091797 61.87398437 -48.76953125 62.765625 C-50.96186085 66.74661717 -54.2492858 69.4949858 -58 72 C-61.625 72.75 -61.625 72.75 -65 72 C-67.36052279 70.34763404 -69.02815452 69.00652618 -71 67 C-71.77859375 66.23300781 -72.5571875 65.46601563 -73.359375 64.67578125 C-76.51975251 61.47332771 -79.52749025 58.14826341 -82.53857422 54.8059082 C-84.98705915 52.11404731 -87.47177863 49.51107194 -90.125 47.01953125 C-90.62757324 46.54273926 -91.13014648 46.06594727 -91.64794922 45.57470703 C-93.04789361 44.25991628 -94.46490428 42.96336648 -95.8828125 41.66796875 C-98.49831814 38.37204559 -98.92233477 36.17450628 -99 32 C-96.875 29.0625 -96.875 29.0625 -94 27 C-91.04821345 26.6168354 -89.54927791 26.65535504 -87.0078125 28.25 C-83.08392621 31.89709763 -79.46857367 35.64584785 -76.0078125 39.734375 C-71.89943693 44.37028517 -67.41423795 48.65760318 -63 53 C-59.18387425 51.42406332 -56.78465455 49.02001091 -53.89599609 46.10717773 C-53.40119247 45.61105988 -52.90638885 45.11494202 -52.39659119 44.60379028 C-50.76755392 42.96827912 -49.14560891 41.32591245 -47.5234375 39.68359375 C-46.39102342 38.54490751 -45.25809148 37.40673606 -44.12466431 36.26905823 C-41.14558861 33.27669292 -38.17213492 30.2788083 -35.20025635 27.27929688 C-30.43752096 22.47340144 -25.66801435 17.67424876 -20.89528275 12.87828255 C-19.22770686 11.20046609 -17.56357496 9.51928819 -15.89974976 7.8377533 C-14.88168634 6.81286397 -13.86351399 5.78808284 -12.84521484 4.76342773 C-11.95571136 3.86567123 -11.06620789 2.96791473 -10.14974976 2.04295349 C-6.55409481 -1.37407484 -4.75663806 -1.2367259 0 0 Z " fill="#3465A7" transform="translate(489,176)"/>
<path d="M0 0 C4.61812405 3.32741759 7.16692014 8.75055149 9.0859375 13.97265625 C9.0859375 15.29265625 9.0859375 16.61265625 9.0859375 17.97265625 C4.4659375 17.97265625 -0.1540625 17.97265625 -4.9140625 17.97265625 C-5.9040625 15.99265625 -6.8940625 14.01265625 -7.9140625 11.97265625 C-11.80173707 8.44945117 -15.48251631 7.59697115 -20.72265625 7.703125 C-25.36598376 8.27422945 -29.1293213 10.02247555 -32.3046875 13.4921875 C-36.59460939 20.42554718 -35.91102491 29.85747218 -34.40625 37.578125 C-32.95854785 42.01275285 -30.79787798 44.48303094 -26.9140625 46.97265625 C-22.72772815 49.06582343 -17.47296637 48.3957702 -12.9140625 47.97265625 C-7.86489664 45.66952796 -5.99455639 43.05830799 -3.9140625 37.97265625 C0.3759375 37.97265625 4.6659375 37.97265625 9.0859375 37.97265625 C8.80629496 44.54425593 6.38157151 49.01687069 2.0859375 53.97265625 C-6.37967259 61.05018047 -16.22170434 61.92520486 -26.9140625 60.97265625 C-33.52117568 59.39697614 -39.59539597 56.30252274 -43.9140625 50.97265625 C-50.28926524 40.21269868 -52.82144612 30.44882966 -50.30078125 17.92578125 C-47.41792523 8.93431841 -42.07509435 2.31463435 -33.6640625 -2.02734375 C-22.42699675 -7.18064779 -10.81572919 -5.80517709 0 0 Z " fill="#20232D" transform="translate(684.9140625,392.02734375)"/>
<path d="M0 0 C4.95 0 9.9 0 15 0 C15 25.08 15 50.16 15 76 C28.2 76 41.4 76 55 76 C55 80.29 55 84.58 55 89 C36.85 89 18.7 89 0 89 C0 59.63 0 30.26 0 0 Z " fill="#232630" transform="translate(68,363)"/>
<path d="M0 0 C4.95 0 9.9 0 15 0 C17.42748896 6.20885749 19.84839389 12.4202256 22.26318359 18.6340332 C23.085913 20.74834708 23.91044986 22.86195854 24.73681641 24.97485352 C25.92303652 28.00875742 27.10277294 31.04511271 28.28125 34.08203125 C28.65310425 35.02899368 29.0249585 35.97595612 29.40808105 36.95161438 C29.74843384 37.83230087 30.08878662 38.71298737 30.43945312 39.62036133 C30.7414563 40.39535477 31.04345947 41.17034821 31.35461426 41.96882629 C32 44 32 44 32 47 C32.66 47 33.32 47 34 47 C34.16428749 46.16774651 34.16428749 46.16774651 34.33189392 45.31867981 C35.45315607 39.9320554 36.98200041 34.93466196 39.00390625 29.82421875 C39.28725327 29.09177444 39.57060028 28.35933014 39.86253357 27.60469055 C40.75648956 25.29656098 41.65897132 22.99189707 42.5625 20.6875 C43.46814588 18.3647195 44.37192514 16.04123963 45.2731781 13.7167511 C45.83122791 12.27877353 46.39202259 10.84185729 46.95594788 9.40617371 C48.17608212 6.27405755 49.18254797 3.2698081 50 0 C54.95 0 59.9 0 65 0 C62.80956946 7.72761332 60.09965971 15.117596 57.11328125 22.5703125 C56.65140915 23.73255341 56.18953705 24.89479431 55.71366882 26.09225464 C54.4985172 29.14785665 53.27977699 32.20199271 52.0592041 35.25543213 C50.80917404 38.3852074 49.56398524 41.51690742 48.31835938 44.6484375 C45.8833106 50.76738923 43.44306611 56.88424511 41 63 C35.72 63 30.44 63 25 63 C18.43658557 47.30693523 11.98584557 31.57637272 5.75 15.75 C5.46033356 15.01637238 5.17066711 14.28274475 4.8722229 13.52688599 C4.05327808 11.45105779 3.23698602 9.37421118 2.421875 7.296875 C1.95362305 6.10416992 1.48537109 4.91146484 1.00292969 3.68261719 C0 1 0 1 0 0 Z " fill="#20232D" transform="translate(539,389)"/>
<path d="M0 0 C4.86991286 3.32039513 7.93350601 7.29634513 9.75 12.875 C10.63956633 21.89774417 9.93693617 29.14599795 4.8125 36.75 C1.9145806 39.73573514 -0.10959435 40.74828826 -4.2734375 41.2109375 C-13.24564033 41.31550863 -13.24564033 41.31550863 -17.8125 39.3125 C-23.33330077 33.79169923 -25.4032799 27.93900491 -25.5625 20.1875 C-25.49791712 13.22690053 -24.64003693 8.397806 -19.75390625 3.3203125 C-13.90018223 -1.84731419 -7.24610189 -2.50826604 0 0 Z " fill="#FCFCFC" transform="translate(165.25,400.125)"/>
<path d="M0 0 C0 4.62 0 9.24 0 14 C-1.69125 14.103125 -3.3825 14.20625 -5.125 14.3125 C-9.71423729 14.74844809 -13.15699669 15.28177815 -17 18 C-21.45824471 23.78366881 -22.16670732 28.2759972 -22.31640625 35.38671875 C-22.33718735 36.20372757 -22.35796844 37.02073639 -22.37937927 37.86250305 C-22.44473079 40.47075034 -22.50369273 43.07909775 -22.5625 45.6875 C-22.60569892 47.45639054 -22.64931365 49.22527097 -22.69335938 50.99414062 C-22.80039743 55.32932463 -22.90170544 59.66460929 -23 64 C-27.62 64 -32.24 64 -37 64 C-37 43.21 -37 22.42 -37 1 C-32.71 1 -28.42 1 -24 1 C-23.67 4.3 -23.34 7.6 -23 11 C-22.175 9.9275 -21.35 8.855 -20.5 7.75 C-14.58208331 0.91737019 -8.83315747 -0.55207234 0 0 Z " fill="#1D202A" transform="translate(534,388)"/>
<path d="M0 0 C4.48949069 2.48930904 7.04328435 5.72234535 8.875 10.5 C9.90168393 15.7878765 9.25559521 20.40924175 6.265625 24.92578125 C3.14155371 28.46230016 -0.54048836 30.99180951 -5.2109375 31.91015625 C-9.90150839 32.11682891 -13.27744691 31.09291622 -17.125 28.5 C-21.29116133 24.37286594 -23.91951568 21.22266726 -24.375 15.1875 C-23.97711381 9.31867864 -21.94323636 6.02187478 -17.625 2.1875 C-12.27350414 -2.28381562 -6.39606712 -2.74462615 0 0 Z " fill="#3366A7" transform="translate(175.125,141.5)"/>
<path d="M0 0 C4.29 0 8.58 0 13 0 C13 20.79 13 41.58 13 63 C8.71 63 4.42 63 0 63 C0 42.21 0 21.42 0 0 Z " fill="#1D2029" transform="translate(612,389)"/>
<path d="M0 0 C0.3743038 4.67879749 0.44402217 8.07780011 -1.625 12.375 C-5.08847511 16.20305144 -7.69075373 17.74620224 -12.87890625 18.31640625 C-17.51340807 18.49268791 -21.0046285 18.45940223 -25.25 16.5 C-27.3789036 13.45870914 -27.67513181 11.55374135 -27.41015625 7.8984375 C-26.73960724 4.79475352 -25.64715293 3.72064941 -23 2 C-15.59811776 -0.79316311 -7.79289851 -0.18264606 0 0 Z " fill="#FAFAFB" transform="translate(238,424)"/>
<path d="M0 0 C3.16137924 3.00716562 4.72233191 5.47406104 6.5625 9.4375 C6.5625 10.7575 6.5625 12.0775 6.5625 13.4375 C-3.9975 13.4375 -14.5575 13.4375 -25.4375 13.4375 C-24.2536435 5.15050448 -24.2536435 5.15050448 -20.4375 1.4375 C-14.34592024 -2.87117837 -6.67531802 -3.03423546 0 0 Z " fill="#FBFBFC" transform="translate(468.4375,400.5625)"/>
<path d="M0 0 C4.3046602 2.20281119 6.27180193 4.81536843 7.83203125 9.3125 C7.83203125 10.9625 7.83203125 12.6125 7.83203125 14.3125 C-2.72796875 14.3125 -13.28796875 14.3125 -24.16796875 14.3125 C-23.03611766 7.52139349 -23.03611766 7.52139349 -20.35546875 4.5625 C-19.85402344 3.99015625 -19.35257813 3.4178125 -18.8359375 2.828125 C-13.69025444 -1.84757764 -6.46364983 -2.049734 0 0 Z " fill="#FBFCFC" transform="translate(738.16796875,399.6875)"/>
<path d="M0 0 C2.75329021 1.79562405 4.52627461 3.05254922 6 6 C6.13862367 9.12204618 5.86492214 11.99412861 5 15 C1.99366054 17.86650972 0.01693043 18.83397054 -4.0625 19.5 C-7.7107785 18.87901643 -9.36991687 17.5549379 -12 15 C-13.55024464 11.89951072 -13.28992015 9.42105782 -13 6 C-9.30920537 0.34078157 -6.6962915 -0.56748233 0 0 Z " fill="#20232D" transform="translate(622,361)"/>
<path d="M0 0 C2.10483746 3.15725619 2.2472059 3.87374611 2.22705078 7.47143555 C2.22682419 8.82249641 2.22682419 8.82249641 2.22659302 10.20085144 C2.21627045 11.16968765 2.20594788 12.13852386 2.1953125 13.13671875 C2.1924826 14.13129593 2.18965271 15.12587311 2.18673706 16.15058899 C2.17553489 19.3296813 2.15043014 22.50849272 2.125 25.6875 C2.11497025 27.84179281 2.10584439 29.99609003 2.09765625 32.15039062 C2.07559541 37.43370211 2.04106521 42.71680342 2 48 C-2.62 48 -7.24 48 -12 48 C-12 34.47 -12 20.94 -12 7 C-11.67 7 -11.34 7 -11 7 C-11 19.87 -11 32.74 -11 46 C-7.37 46 -3.74 46 0 46 C0 30.82 0 15.64 0 0 Z " fill="#0F121B" transform="translate(318,404)"/>
<path d="M0 0 C0.99 0.33 1.98 0.66 3 1 C-0.3 3.97 -3.6 6.94 -7 10 C-7.66 9.67 -8.32 9.34 -9 9 C-8.06725891 7.87105124 -7.12859878 6.74699124 -6.1875 5.625 C-5.66542969 4.99851562 -5.14335938 4.37203125 -4.60546875 3.7265625 C-3 2 -3 2 0 0 Z " fill="#13151E" transform="translate(520,390)"/>
<path d="M0 0 C-1.39332574 3.36720387 -2.9789286 4.9859524 -6 7 C-6 4 -6 4 -4.125 1.8125 C-2 0 -2 0 0 0 Z " fill="#2158A0" transform="translate(161,142)"/>
</svg>
